<svg width="25" height="26" viewBox="0 0 25 26" fill="none" xmlns="http://www.w3.org/2000/svg">
<g id="icon - search">
<path id="Vector" d="M21.9452 17.671L19.8386 15.5874C19.386 15.172 18.8195 14.9014 18.212 14.8104C17.6044 14.7195 16.9835 14.8122 16.4291 15.0769L15.5136 14.1927C16.5492 12.7573 17.0027 10.9829 16.7826 9.22663C16.5626 7.47036 15.6854 5.86266 14.3276 4.72716C12.9698 3.59165 11.2323 3.01267 9.46482 3.10676C7.69732 3.20085 6.03109 3.96102 4.80155 5.23425C3.572 6.50749 2.87044 8.19923 2.83809 9.96894C2.80575 11.7386 3.44502 13.4549 4.62721 14.7722C5.80941 16.0895 7.44675 16.9101 9.20962 17.0687C10.9725 17.2273 12.73 16.7122 14.1284 15.6271L15.0338 16.5014C14.7587 17.0659 14.6677 17.7026 14.7736 18.3216C14.8795 18.9405 15.177 19.5107 15.6241 19.9516L17.7808 22.0343C18.353 22.5862 19.1209 22.8884 19.9157 22.8746C20.7106 22.8607 21.4675 22.5319 22.0201 21.9603C22.3009 21.676 22.5221 21.3384 22.6707 20.9674C22.8192 20.5964 22.8921 20.1995 22.8852 19.7999C22.8782 19.4003 22.7915 19.0062 22.63 18.6406C22.4686 18.275 22.2358 17.9453 21.9452 17.671ZM13.3925 13.5796C12.7051 14.2897 11.8225 14.7802 10.8565 14.9889C9.89042 15.1977 8.88415 15.1155 7.96478 14.7527C7.04541 14.3899 6.2542 13.7627 5.69109 12.9505C5.12798 12.1382 4.81824 11.1773 4.80099 10.1891C4.78374 9.20083 5.05976 8.22967 5.59418 7.39824C6.1286 6.56682 6.89744 5.91243 7.80358 5.51775C8.70973 5.12307 9.71252 5.00579 10.6853 5.18074C11.658 5.3557 12.5571 5.81502 13.269 6.5007C13.7426 6.95696 14.1216 7.50219 14.3843 8.10515C14.6469 8.7081 14.788 9.35695 14.7995 10.0145C14.8109 10.6721 14.6926 11.3255 14.4512 11.9372C14.2097 12.549 13.85 13.1071 13.3925 13.5796ZM20.5848 20.5252C20.4935 20.6205 20.3842 20.6968 20.2633 20.7497C20.1423 20.8026 20.0121 20.831 19.8801 20.8333C19.7481 20.8356 19.617 20.8118 19.4943 20.7631C19.3715 20.7145 19.2596 20.642 19.1651 20.5499L17.0084 18.4673C16.913 18.376 16.8367 18.2667 16.7838 18.1457C16.731 18.0248 16.7025 17.8945 16.7002 17.7625C16.6979 17.6305 16.7218 17.4994 16.7704 17.3767C16.8191 17.2539 16.8915 17.1421 16.9836 17.0475C17.0749 16.9521 17.1842 16.8758 17.3052 16.8229C17.4261 16.7701 17.5563 16.7416 17.6883 16.7393C17.8203 16.737 17.9515 16.7609 18.0742 16.8095C18.1969 16.8582 18.3088 16.9306 18.4034 17.0227L20.5601 19.1054C20.6554 19.1967 20.7317 19.306 20.7846 19.4269C20.8375 19.5479 20.8659 19.6781 20.8682 19.8101C20.8705 19.9421 20.8467 20.0732 20.798 20.196C20.7494 20.3187 20.6769 20.4306 20.5848 20.5252Z" fill="#C0C9C0"/>
</g>
</svg>
