<svg width="74" height="52" viewBox="0 0 74 52" fill="none" xmlns="http://www.w3.org/2000/svg">
<path fill-rule="evenodd" clip-rule="evenodd" d="M49.1668 40.4249H53.3825C53.5611 40.0466 54.1137 38.7503 54.172 37.0796C54.2139 35.8745 53.9825 33.6509 52.6188 31.9462C51.7353 30.8409 50.3686 29.9503 48.2811 29.6996C46.3732 29.4706 44.8367 29.8469 43.6414 30.4522C41.5081 31.5342 40.4653 33.3263 40.3367 33.7013C40.2343 33.9997 39.521 36.2083 38.7086 38.7287L38.2793 38.6996C39.1251 36.0761 39.8705 33.7677 39.9402 33.5652C40.0799 33.1585 41.1966 31.2224 43.453 30.0782C44.7127 29.4392 46.329 29.041 48.3308 29.2828C50.546 29.5501 52.0017 30.501 52.9476 31.6838C54.3906 33.4873 54.6356 35.8268 54.5915 37.0933C54.5188 39.1848 53.7021 40.7272 53.6998 40.7318C53.6819 40.7657 53.6551 40.794 53.6223 40.8139C53.5896 40.8337 53.552 40.8442 53.5137 40.8443H49.1675C49.0517 40.8443 48.9489 40.8476 48.8501 40.8512C48.6276 40.8587 48.4192 40.8656 48.2333 40.8385C47.7275 40.7645 47.4209 40.4946 47.5534 39.5912C47.5982 39.2852 48.8076 38.2379 49.603 37.5491C49.832 37.3528 50.0234 37.185 50.1393 37.0793C50.5394 36.7151 50.4158 35.7237 50.3951 35.5778L50.3915 35.5588C50.3101 34.9957 50.0643 34.55 49.7103 34.2173C49.3563 33.8845 48.8989 33.661 48.3855 33.54C47.862 33.416 47.2868 33.3983 46.7119 33.4817C45.7159 33.6264 44.7307 34.074 44.0481 34.7984C43.8085 35.0527 43.5917 35.3276 43.4003 35.62C43.2183 35.8967 43.0634 36.1903 42.938 36.4969C42.6589 37.1905 42.3389 38.0586 42.0218 38.9531L41.5863 38.9237C41.9187 37.9866 42.2558 37.0704 42.5496 36.3388C42.6853 36.0071 42.853 35.6893 43.0502 35.39C43.2551 35.0767 43.4872 34.782 43.7439 34.5095C44.4944 33.7131 45.5703 33.2219 46.654 33.0646C47.2786 32.9739 47.9088 32.9939 48.4827 33.13C49.0654 33.2681 49.5919 33.5266 49.9996 33.9107C50.4207 34.3076 50.7132 34.835 50.8094 35.4986L50.8113 35.5159C50.8339 35.6763 50.9841 36.879 50.4226 37.3898C50.3025 37.4991 50.1082 37.6676 49.8785 37.8665C49.1302 38.5144 47.9922 39.4999 47.9703 39.6511C47.8868 40.2207 48.0387 40.3846 48.2952 40.4223C48.4463 40.4445 48.6348 40.4383 48.836 40.4314C48.9479 40.4275 49.0651 40.4236 49.1685 40.4236L49.1668 40.4249ZM38.0565 40.7521L37.6161 40.7563C36.6371 43.7953 35.7183 46.6459 35.7141 46.6632C35.6983 46.7122 35.701 46.7651 35.7216 46.8122C35.7422 46.8593 35.7793 46.8972 35.826 46.9188L37.7564 47.9966C37.7855 48.0112 37.8175 48.0188 37.85 48.0188L70.7825 48.0371C70.8925 48.0371 71.6211 48.0214 71.5757 47.2614C71.5603 47.0025 71.6261 45.272 71.6833 43.1347C71.7488 40.7171 71.9405 38.6574 71.9591 38.0203C71.9665 37.8498 71.9493 37.6791 71.9081 37.5135C71.8698 37.3529 71.7884 37.2059 71.6728 37.0881C71.5409 36.9612 71.3651 36.8901 71.182 36.8895C71.0692 36.8877 70.9567 36.9021 70.848 36.9324C70.4436 37.0407 69.8808 37.5622 69.3252 38.2202C68.6554 39.0133 67.9788 40.0162 67.6149 40.7102C67.0623 41.7644 66.3114 43.4724 66.1062 43.9432L59.5623 44.0371C59.218 44.0421 58.9825 43.9354 58.8339 43.7453C58.6736 43.5411 58.598 43.2336 58.5856 42.8569C58.5528 41.8515 58.972 40.9756 59.4062 40.0679C59.5066 39.8585 59.6077 39.6468 59.7092 39.421C60.2095 38.3086 61.7679 34.1345 61.9501 33.6457C62.3277 33.2965 65.533 30.3432 66.0552 30.091C66.1813 30.0313 66.3204 30.0044 66.4596 30.0128C66.5902 30.0194 66.717 30.0586 66.8287 30.1266C66.9501 30.2035 67.0469 30.3135 67.1078 30.4437C67.1876 30.6073 67.2298 30.8262 67.2144 31.1033L66.9762 35.4933L66.9739 35.5807C66.9739 36.0322 67.1497 36.5296 67.4454 36.9183C67.7497 37.3191 68.1823 37.6113 68.6826 37.6381C68.733 37.6381 68.7771 37.6381 68.8279 37.6381C69.3742 37.6239 69.8944 37.4015 70.2822 37.0165C70.4784 36.8205 70.6338 36.5878 70.7396 36.3315C70.8454 36.0753 70.8995 35.8007 70.8987 35.5235V35.443C70.8836 34.9253 70.987 29.7913 71.1012 24.4589C71.2148 19.1753 71.3414 13.6169 71.3712 12.2976C71.3736 12.1872 71.3682 12.0768 71.3551 11.9671C71.3077 11.5745 71.1588 11.194 70.9131 10.908C70.784 10.753 70.623 10.6279 70.4409 10.5412C70.2588 10.4545 70.0602 10.4083 69.8585 10.4057C69.7788 10.4042 69.6991 10.4084 69.62 10.4182C68.8835 10.5065 68.4539 10.8537 68.2065 11.3546C67.9726 11.8274 67.9146 12.4288 67.912 13.0714C67.9068 14.2062 67.4958 23.618 67.431 25.0979L64.732 25.1693C64.6896 25.1706 64.6486 25.1844 64.6142 25.2092L58.8954 29.3934C58.8626 29.4174 58.8374 29.4503 58.8228 29.4883L52.7663 45.3391L51.9343 45.3535L52.0956 44.6906C52.1021 44.6638 52.1033 44.636 52.0991 44.6088C52.0949 44.5815 52.0853 44.5554 52.0709 44.5319C52.0566 44.5084 52.0377 44.4879 52.0155 44.4717C51.9932 44.4554 51.9679 44.4438 51.9412 44.4373C51.9263 44.4335 51.911 44.4313 51.8957 44.4308L46.7852 44.3234C46.748 44.3227 46.7112 44.3318 46.6787 44.3499C46.6463 44.368 46.6192 44.3945 46.6003 44.4265L46.0745 45.2884C45.3576 45.3325 41.3301 45.5717 40.9774 45.4065C40.7654 45.3083 40.4928 45.0547 40.3557 44.6994C40.2427 44.4031 40.2436 44.0754 40.358 43.7796C40.4431 43.5463 40.5926 43.105 40.7899 42.5216C40.964 42.0072 41.1747 41.3849 41.4027 40.722L40.9568 40.7262C40.747 41.3381 40.5533 41.91 40.3914 42.3884C40.1846 42.9999 40.0279 43.4632 39.9641 43.6376C39.7978 44.0934 39.8332 44.507 39.9641 44.8506C40.144 45.3175 40.5115 45.6542 40.8 45.789C41.264 46.0052 45.8844 45.7216 46.1936 45.7023C46.2302 45.7028 46.2662 45.6938 46.2983 45.6761C46.3303 45.6585 46.3571 45.6327 46.3762 45.6015L46.8974 44.7472L51.6251 44.8453L51.4615 45.5141C51.4566 45.5329 51.4542 45.5523 51.4546 45.5717C51.4552 45.5993 51.4611 45.6264 51.4722 45.6517C51.4832 45.6769 51.4992 45.6997 51.519 45.7188C51.5389 45.7379 51.5623 45.7528 51.588 45.7629C51.6137 45.7729 51.6411 45.7778 51.6686 45.7772L52.9031 45.7556C52.9469 45.7571 52.9901 45.745 53.0266 45.7207C53.0631 45.6965 53.0911 45.6614 53.1066 45.6205L59.1932 29.6947L64.8046 25.5907L67.6264 25.5161C67.6807 25.5163 67.7329 25.4955 67.7722 25.4581C67.8115 25.4206 67.8347 25.3694 67.8371 25.3152C67.8371 25.2825 68.3217 14.306 68.3279 13.078C68.3305 12.489 68.3799 11.9478 68.5789 11.5451C68.7641 11.1701 69.0935 10.9093 69.6652 10.8406C69.7249 10.8335 69.785 10.8307 69.8451 10.8321C69.9876 10.8338 70.1281 10.8663 70.2569 10.9274C70.3857 10.9885 70.4997 11.0768 70.5911 11.1861C70.7799 11.4063 70.8957 11.7067 70.9337 12.0224C70.9442 12.1126 70.9485 12.2033 70.9465 12.294C70.9167 13.594 70.792 19.0827 70.6765 24.4566C70.5623 29.7821 70.4593 34.9172 70.4753 35.4623V35.5277C70.4765 35.7498 70.4338 35.97 70.3495 36.1755C70.2653 36.381 70.1412 36.5679 69.9845 36.7252C69.6716 37.0345 69.2523 37.2125 68.8125 37.2229H68.7029C68.3377 37.2033 68.0128 36.9778 67.7776 36.6667C67.5358 36.3483 67.3911 35.9468 67.3921 35.5823C67.4422 34.1064 67.5515 32.6068 67.6326 31.1285C67.6522 30.7761 67.5933 30.4898 67.484 30.2634C67.3892 30.0616 67.2384 29.8912 67.0495 29.7726C66.878 29.6664 66.6824 29.6053 66.4809 29.5949C66.2707 29.583 66.061 29.6242 65.871 29.7147C65.2784 30.0013 61.8058 33.2079 61.6337 33.3669C61.6058 33.3905 61.5845 33.4209 61.5719 33.4552C61.5673 33.4686 59.8482 38.0864 59.325 39.2512C59.2315 39.4593 59.1287 39.6746 59.0263 39.8879C58.5682 40.8427 58.1285 41.7644 58.1648 42.8736C58.1802 43.336 58.2826 43.7243 58.5015 44.0057C58.7321 44.3002 59.078 44.4654 59.5675 44.4583L66.2459 44.3624C66.2861 44.3617 66.3252 44.3495 66.3586 44.3272C66.392 44.3049 66.4183 44.2735 66.4344 44.2367C66.437 44.2308 67.3375 42.1427 67.9856 40.9068C68.338 40.2345 68.9941 39.262 69.6439 38.4924C70.1504 37.8927 70.6418 37.4228 70.9543 37.3394C71.0241 37.3195 71.0964 37.3095 71.169 37.31C71.2472 37.3086 71.323 37.3374 71.3807 37.3904C71.441 37.4561 71.4829 37.5366 71.502 37.6237C71.5328 37.7505 71.5454 37.8809 71.5397 38.0111C71.5164 38.7964 71.3106 41.2589 71.2619 43.1256C71.2043 45.2726 71.1385 47.016 71.1549 47.2885C71.1739 47.6049 70.8562 47.6203 70.792 47.62L37.9004 47.601L36.1699 46.6233C36.3835 45.9565 37.2009 43.4119 38.0565 40.754V40.7521Z" fill="#374B3D"/>
<path fill-rule="evenodd" clip-rule="evenodd" d="M0.36413 47.2414L0.0192629 13.8583C0.0190573 13.8474 0.0197137 13.8364 0.021226 13.8256C0.0369316 13.6574 0.264334 11.2669 0.837258 10.246C1.25444 9.5033 2.77558 8.25667 3.88544 7.34706C4.36446 6.95442 4.76593 6.62559 4.95276 6.4417C5.24069 6.159 6.04102 5.44342 6.90384 4.68432C8.00454 3.71516 9.20306 2.67958 9.57345 2.37594C9.66376 2.30166 9.7521 2.22543 9.84699 2.14395C10.4215 1.64792 11.2278 0.951643 12.4891 0.563586C12.6177 0.524322 12.7453 0.488984 12.871 0.459209C12.9966 0.429434 13.1347 0.400968 13.2796 0.377737L13.4242 0.35516C14.3731 0.214138 15.3976 0.279577 16.3291 0.490293C17.3006 0.711479 18.1761 1.09496 18.7677 1.57823C19.2042 1.93352 19.5744 2.36321 19.8612 2.84743C20.1613 3.34837 20.4037 3.94223 20.5928 4.65455C20.9482 5.99377 21.0493 7.37651 20.9616 8.75565C20.8634 10.3033 20.5271 11.849 20.0454 13.326C19.2274 15.8392 17.755 18.2774 16.3913 20.5364L16.209 20.8388C15.9584 21.254 15.5766 21.856 15.1777 22.4846C14.4736 23.5944 13.7151 24.789 13.5316 25.1941C13.3915 25.5026 13.3251 25.8743 13.3562 26.2987C13.3853 26.6976 13.5008 27.1429 13.722 27.6268C13.9743 28.1778 14.7242 29.6554 15.6728 31.1641C16.2617 32.1016 16.9272 33.0485 17.5928 33.7844C18.378 34.6504 19.413 35.4001 20.5408 35.9959C21.7717 36.6467 23.1113 37.1142 24.3494 37.3515C26.3211 37.7291 45.8103 39.0686 48.0621 39.2227C48.0159 39.2613 47.9738 39.3045 47.9365 39.3516C47.906 39.3991 47.8105 39.5054 47.7264 39.6199C44.4067 39.3909 26.1847 38.1312 24.2702 37.7647C22.9964 37.5206 21.616 37.0383 20.3438 36.3666C19.1738 35.7482 18.0966 34.9688 17.2803 34.0664C16.5955 33.3093 15.9159 32.3427 15.3171 31.388C14.3587 29.8639 13.597 28.3623 13.3402 27.8009C13.0974 27.2702 12.9704 26.7758 12.9374 26.3285C12.9011 25.8308 12.9812 25.3904 13.1487 25.0197C13.3428 24.5914 14.1101 23.3837 14.8227 22.2591C15.2173 21.6374 15.5952 21.0419 15.8498 20.6202L16.032 20.3179C17.383 18.0798 18.841 15.6641 19.6453 13.1954C20.1161 11.7505 20.4449 10.2395 20.5411 8.72849C20.6262 7.38894 20.529 6.0507 20.1868 4.7599C20.0111 4.09144 19.782 3.53356 19.5016 3.06338C19.2399 2.62104 18.9021 2.22847 18.5037 1.90379C17.9599 1.46076 17.1458 1.10641 16.2365 0.899291C15.3531 0.698391 14.3833 0.637532 13.4835 0.768412C13.4386 0.774628 13.3935 0.780845 13.3487 0.789352C13.2217 0.81062 13.0944 0.837123 12.9681 0.867225C12.8418 0.897328 12.7208 0.930048 12.6118 0.963422C11.4365 1.32334 10.6686 1.98821 10.1212 2.46035C10.0178 2.54968 9.92159 2.63279 9.83979 2.69986C9.46155 3.00972 8.26924 4.04138 7.18131 4.99778C6.32339 5.7536 5.52928 6.46362 5.24724 6.74043C5.03979 6.94461 4.63505 7.27638 4.15178 7.67229C3.06744 8.56097 1.58131 9.7788 1.20372 10.4512C0.677259 11.3896 0.457054 13.6698 0.439058 13.8632L0.783925 47.2652C0.731573 48.1611 0.870306 48.6696 1.0856 48.9618C1.28454 49.2317 1.56429 49.3191 1.80838 49.3649C1.84947 49.3726 1.89099 49.3779 1.93272 49.3806C2.21773 49.3977 2.50225 49.3398 2.75791 49.2127C3.00724 49.0848 3.21337 48.876 3.27129 48.5668C3.27852 48.5292 3.28355 48.4912 3.28634 48.453C3.31546 48.0348 3.30793 46.8674 3.30041 45.6718C3.29092 44.1994 3.28143 42.6812 3.34425 42.4077C3.40118 42.1606 3.56871 41.8841 3.78139 41.6306C4.00775 41.3595 4.27226 41.1228 4.56666 40.9277C5.03227 40.6313 5.61599 40.6208 5.71775 40.6215L47.9149 40.4445C48.2126 40.5839 48.368 40.6431 48.4737 40.6912C48.509 40.7075 48.5452 40.7215 48.5824 40.7331C48.5679 40.768 48.5443 40.7983 48.514 40.8209C48.4837 40.8435 48.4478 40.8575 48.4102 40.8613H48.3896L5.71251 41.0393C5.64707 41.0393 5.16838 41.0416 4.79341 41.2801C4.53492 41.4519 4.30271 41.6602 4.10401 41.8985C3.92961 42.1066 3.7948 42.3239 3.7539 42.5006C3.70188 42.7264 3.71137 44.2174 3.72118 45.6669C3.72904 46.8667 3.73623 48.0391 3.70581 48.4788C3.70206 48.5337 3.69528 48.5883 3.68552 48.6424C3.59979 49.1005 3.30531 49.4028 2.95096 49.5848C2.62711 49.7456 2.26681 49.8188 1.90589 49.7971C1.84783 49.7934 1.79003 49.7863 1.7328 49.7758V49.7758C1.40855 49.7153 1.03456 49.5956 0.751205 49.2095C0.48323 48.8456 0.308833 48.2488 0.367402 47.2414H0.36413ZM3.3894 30.05V30.068C3.39366 30.1335 3.39889 30.1953 3.40544 30.2486C3.44732 30.5899 3.54842 30.8546 3.71202 31.0339C3.89002 31.2302 4.12953 31.3248 4.43186 31.3065L4.5117 31.2996C4.83595 31.2597 5.19881 31.0127 5.57967 30.5994C5.96053 30.1862 6.36495 29.6136 6.77951 28.9107C7.06057 28.436 8.16257 26.8644 9.52961 24.915C12.0124 21.3744 15.3668 16.5907 16.3072 14.8046C17.0552 13.3832 17.5401 11.6252 17.6912 9.99769C17.8395 8.40456 17.667 6.92596 17.1098 5.98984L17.0993 5.97119C16.5104 4.99581 15.516 4.64407 14.542 4.61528C13.596 4.58747 12.6615 4.87017 12.1485 5.17544L12.1328 5.18395C11.5746 5.52195 9.77272 7.03426 8.14523 8.40031C6.89861 9.44735 5.75472 10.4064 5.36994 10.6711C4.96225 10.9518 4.64552 11.3523 4.41157 11.7675C4.09681 12.3273 3.93026 12.9215 3.89787 13.2798C3.84421 13.8688 3.38908 30.0023 3.38777 30.0487L3.3894 30.05ZM4.31865 13.3188C4.26662 13.894 3.81247 29.9846 3.81051 30.0602C3.81345 30.104 3.81803 30.1502 3.82392 30.1976C3.85664 30.4522 3.92208 30.64 4.02515 30.7538C4.11349 30.852 4.2411 30.8985 4.40895 30.8883L4.46392 30.8828C4.68315 30.8559 4.95898 30.6537 5.27309 30.3151C5.6281 29.9306 6.01746 29.3767 6.41828 28.6971C6.70523 28.2125 7.8128 26.6331 9.18638 24.6742C11.6633 21.1447 15.0076 16.3754 15.9365 14.6109C16.6593 13.2366 17.1278 11.5378 17.2744 9.9617C17.4151 8.44841 17.2606 7.05978 16.7509 6.20448L16.7424 6.19041C16.2401 5.36064 15.3802 5.06093 14.5331 5.03606C13.6693 5.01054 12.8245 5.2651 12.3648 5.53733L12.3527 5.54518C11.8203 5.86714 10.0322 7.368 8.41713 8.72326C7.15906 9.77912 6.0047 10.748 5.6101 11.0195C5.26098 11.2597 4.98581 11.6085 4.78032 11.9743C4.49664 12.4785 4.34744 13.005 4.31898 13.3191L4.31865 13.3188ZM9.90719 29.4716L5.36634 36.4795C5.24887 36.6608 5.1373 36.896 5.10131 37.1273C5.07513 37.2909 5.08593 37.4509 5.1602 37.5828C5.21583 37.681 5.36339 37.7562 5.53844 37.8118C5.80839 37.8891 6.08902 37.9222 6.36953 37.91C6.73893 37.8881 15.0262 37.7791 15.0498 37.7791C15.1113 37.7758 15.7424 37.7245 15.5546 36.9412C15.4421 36.4706 14.5276 34.8193 13.5705 33.1692C12.6135 31.5192 11.6014 29.8527 11.3128 29.3806C11.2098 29.2132 11.0767 29.0663 10.9202 28.9474C10.8119 28.8682 10.6997 28.8165 10.6038 28.8208C10.4804 28.828 10.3561 28.9156 10.2439 29.0302C10.117 29.1659 10.004 29.314 9.90654 29.4722L9.90719 29.4716ZM5.01362 36.2518C4.87063 36.4726 4.73517 36.7651 4.68642 37.0616C4.64585 37.3119 4.66711 37.5661 4.79276 37.7889C4.90826 37.9938 5.14515 38.1279 5.41443 38.2113C5.73237 38.3038 6.06324 38.344 6.39407 38.3301C6.77754 38.3072 15.0321 38.1992 15.056 38.1992H15.0684C15.178 38.1937 16.2669 38.106 15.9646 36.8453C15.8416 36.3309 14.9084 34.6403 13.9343 32.9608C12.9603 31.2813 11.9571 29.6293 11.6734 29.1653C11.5411 28.9503 11.3702 28.7617 11.1692 28.6091C10.9886 28.4782 10.7844 28.3889 10.5802 28.401C10.3358 28.4157 10.1241 28.5551 9.9458 28.7357C9.7982 28.8919 9.66666 29.0626 9.55317 29.2451L5.01362 36.2518Z" fill="#374B3D"/>
<path fill-rule="evenodd" clip-rule="evenodd" d="M34.9044 9.83376H34.887L31.4341 10.0199H31.4269C31.4236 10.0199 30.2847 10.0425 30.1577 10.7938C30.1386 10.9029 30.1335 11.0141 30.1427 11.1246C30.1572 11.3389 30.2452 11.5417 30.3917 11.6988C30.5179 11.8328 30.6841 11.9223 30.8654 11.954C30.9271 11.9647 30.9899 11.9674 31.0523 11.9622L31.2764 11.9416C32.2825 11.8486 35.4881 11.5522 36.5836 11.6334C37.8027 11.7233 39.8307 12.6166 39.8366 12.6192C39.8827 12.6391 39.9201 12.6749 39.9421 12.72C39.9641 12.7652 39.9691 12.8167 39.9563 12.8653C39.9125 13.0894 39.3294 16.0594 39.1207 16.8175C38.907 17.5923 36.9788 25.2297 36.9733 25.2517C36.9599 25.3036 36.9272 25.3486 36.8818 25.3772C36.8364 25.4059 36.7818 25.4161 36.7292 25.4058C36.6765 25.3955 36.6298 25.3655 36.5985 25.3219C36.5672 25.2783 36.5538 25.2244 36.561 25.1712C36.5764 24.9726 36.7311 22.4842 34.9734 21.4784C34.9495 21.4647 34.9284 21.4465 34.9115 21.4247C34.8946 21.4028 34.8822 21.3779 34.875 21.3513C34.8677 21.3247 34.8657 21.2969 34.8692 21.2695C34.8727 21.2422 34.8815 21.2157 34.8952 21.1918C34.91 21.166 34.9302 21.1436 34.9544 21.1264C35.1998 20.9163 39.0166 17.5324 36.4314 12.0456C35.2676 11.9946 32.276 12.2711 31.3147 12.3601L31.0896 12.3807C30.9913 12.3894 30.8923 12.3855 30.7951 12.3689C30.5245 12.3206 30.2767 12.1862 30.0887 11.9857C29.8773 11.7609 29.7492 11.4705 29.7258 11.1628C29.7134 11.0171 29.7197 10.8705 29.7445 10.7264C29.929 9.63221 31.4132 9.60243 31.4191 9.60243L34.2173 9.45159C33.4974 9.0547 32.065 8.44284 29.9941 8.36235C27.8641 8.27957 26.1031 8.56129 24.669 9.20979C23.2457 9.85339 22.141 10.8618 21.3132 12.237C20.5391 13.5236 19.7996 15.4086 19.7099 17.1902C19.6445 18.5075 19.937 19.7655 20.8421 20.6679C20.869 20.6926 20.8891 20.724 20.9002 20.7588C20.9114 20.7936 20.9132 20.8308 20.9055 20.8666L20.8506 21.1244C20.8441 21.1553 20.8307 21.1843 20.8113 21.2092C20.792 21.2341 20.7673 21.2544 20.739 21.2684C20.7279 21.2742 16.8529 23.1602 16.6938 27.2702C16.5993 29.7097 17.5305 31.6389 19.0366 33.0534C20.7913 34.7008 23.3258 35.6559 25.9333 35.9115C27.8726 36.0999 29.6578 35.956 31.1854 35.28C32.7043 34.6082 33.9768 33.4051 34.9044 31.4724C34.9256 31.4228 34.965 31.3833 35.0146 31.3621C35.0641 31.3408 35.1199 31.3395 35.1704 31.3583C35.2209 31.3771 35.2623 31.4146 35.2858 31.4631C35.3094 31.5116 35.3134 31.5673 35.297 31.6186C35.2918 31.6383 34.4496 34.6943 33.4857 38.175L33.0603 38.1423C33.6087 36.1624 34.1194 34.3141 34.4617 33.0707C33.6018 34.2977 32.5525 35.1321 31.3576 35.6618C29.7572 36.3699 27.903 36.5223 25.8966 36.327C23.2002 36.0652 20.5751 35.0725 18.75 33.3583C17.1598 31.865 16.1765 29.8282 16.276 27.2538C16.4301 23.2711 19.8585 21.2631 20.4641 20.9389L20.4749 20.8878C19.5316 19.8964 19.225 18.5595 19.2938 17.1699C19.386 15.312 20.1526 13.3538 20.9549 12.0208C21.8279 10.57 22.9944 9.50558 24.4982 8.82566C25.9912 8.15033 27.8147 7.85683 30.0121 7.94223C32.8895 8.05413 34.6086 9.16824 34.9528 9.41167C40.9981 9.08611 52.7602 8.45396 53.6047 8.41634C54.2189 8.38918 54.6806 8.47981 55.0084 8.68202C55.3585 8.8983 55.5516 9.22943 55.6088 9.66951C55.6358 9.85299 55.6232 10.0401 55.5719 10.2183C55.5206 10.3965 55.4318 10.5617 55.3114 10.7028C55.0605 11.0019 54.6829 11.2021 54.2798 11.2891C53.6293 11.4292 48.7881 11.4789 48.1526 11.4855L44.598 14.2225C44.2688 15.1763 39.6494 28.561 36.2426 38.3812L35.8101 38.3484C39.3369 28.1824 44.1998 14.0893 44.2214 14.0265C44.2357 13.9846 44.263 13.9484 44.2992 13.9231L47.9534 11.1092C47.9892 11.0815 48.0331 11.0662 48.0784 11.0657C48.0941 11.0657 53.5347 11.0192 54.1924 10.8772C54.5104 10.8088 54.8029 10.6567 54.9904 10.4335C55.0728 10.3362 55.1335 10.2224 55.1682 10.0997C55.203 9.97698 55.2111 9.84827 55.192 9.72219C55.1517 9.41266 55.0215 9.18362 54.7879 9.03932C54.532 8.88129 54.1499 8.81028 53.625 8.83482C52.7769 8.87245 40.9346 9.50918 34.9093 9.83343L34.9044 9.83376ZM32.7226 40.9264C31.7495 44.4327 30.8393 47.6903 30.694 48.1346C30.6328 48.3193 30.5924 48.5103 30.5736 48.7039C30.5484 48.985 30.5808 49.2275 30.6623 49.413C30.7342 49.5749 30.8452 49.6888 30.9895 49.7353C31.0261 49.747 31.064 49.7545 31.1023 49.7578C31.3445 49.7798 31.5486 49.6463 31.724 49.4418C31.9239 49.2078 32.0882 48.8819 32.2292 48.5711C32.3136 48.3777 33.4137 45.2366 34.9142 40.9176H35.3585C33.8276 45.3233 32.6997 48.5482 32.6101 48.7461C32.4563 49.0851 32.2747 49.4434 32.0414 49.7163C31.7829 50.0186 31.4662 50.2149 31.0637 50.1786C30.9942 50.1726 30.9256 50.1586 30.8592 50.1371C30.5975 50.052 30.4012 49.8567 30.2794 49.5848C30.1688 49.3351 30.124 49.0194 30.1554 48.6686C30.177 48.4436 30.2238 48.2218 30.2951 48.0073C30.4368 47.5712 31.3268 44.3869 32.2865 40.9304L32.7226 40.9284V40.9264ZM39.5149 12.9372C39.0866 12.7573 37.8567 12.2622 36.918 12.098C39.1567 17.1345 36.2472 20.4582 35.421 21.2641C36.3663 21.9247 36.7488 22.9763 36.8987 23.8287C37.4611 21.6037 38.5533 17.2939 38.7153 16.7053C38.9018 16.0283 39.385 13.5965 39.5149 12.9372Z" fill="#374B3D"/>
<path fill-rule="evenodd" clip-rule="evenodd" d="M47.6038 27.9138L40.1414 31.4848L37.7201 38.4901L37.4332 38.4692C38.261 36.0734 39.0885 33.6777 39.9156 31.2819L39.9683 31.2571L47.5132 27.6461L47.5786 27.633L56.3004 27.9556L62.9828 23.1291C63.7334 20.4815 64.3956 17.9905 65.0739 15.4377C65.3893 14.2519 65.7083 13.0521 66.0712 11.7076L66.2934 10.8779C66.3729 10.5788 66.4465 10.2977 66.5106 10.0471C66.5365 9.946 66.5663 9.84588 66.5993 9.74804C66.844 9.03082 67.3169 8.26747 67.9333 7.73577C68.5635 7.19295 69.3438 6.88768 70.191 7.10363C70.2499 7.11868 70.3091 7.13635 70.3686 7.15663C72.322 7.82183 73.2431 10.142 73.1626 12.0708C73.0252 15.3399 72.911 18.6308 72.8118 21.9146C72.7137 25.143 72.6292 28.4514 72.5501 31.7567C72.4673 35.2136 72.6086 38.0334 72.5409 40.9291L72.3446 48.8358L37.2598 48.6781L37.1943 48.6614L34.7315 47.2083C35.4291 45.1928 35.8918 42.9269 36.5887 40.9111H36.8832L35.0741 47.0745L37.2948 48.3993L72.0707 48.556L72.2592 40.9241C72.3269 38.0284 72.1856 35.2087 72.2683 31.7518C72.3451 28.5398 72.4324 25.2587 72.5301 21.9084C72.6299 18.6079 72.7441 15.313 72.8805 12.0597C72.9564 10.2601 72.1051 8.04334 70.2767 7.42101C70.2243 7.40301 70.172 7.38829 70.12 7.37422C69.3746 7.18412 68.6803 7.45995 68.1142 7.94747C67.5357 8.44645 67.0921 9.16334 66.8627 9.83704C66.83 9.9352 66.8022 10.0275 66.7796 10.1161C66.7017 10.4204 66.6301 10.6943 66.5623 10.9492L66.3425 11.7796C66.0153 12.9853 65.6796 14.2549 65.3461 15.5097C64.6672 18.0635 64.0046 20.5547 63.2393 23.2528L63.187 23.3284L56.4254 28.2109L56.3387 28.2367L47.6038 27.9138Z" fill="#231F20"/>
<path fill-rule="evenodd" clip-rule="evenodd" d="M30.0043 12.578C30.855 13.0541 31.4312 13.9703 31.6763 15.0667C31.9165 16.1399 31.8399 17.3918 31.3893 18.5677C31.2998 18.8016 31.1957 19.0296 31.0779 19.2506C30.6018 20.1438 29.9451 20.811 29.2269 21.1843C28.4874 21.5685 27.6835 21.645 26.9365 21.3443C26.832 21.3017 26.7303 21.2526 26.6319 21.1974C25.7812 20.7213 25.205 19.8052 24.9599 18.7084C24.7197 17.6355 24.7963 16.3837 25.2469 15.2074C25.3364 14.9735 25.4405 14.7455 25.5583 14.5245C26.0344 13.6313 26.6911 12.9638 27.4093 12.5908C28.1488 12.2067 28.9527 12.1301 29.6997 12.4308C29.8042 12.4733 29.906 12.5224 30.0043 12.5777V12.578ZM31.1639 15.1838C30.9512 14.2333 30.4647 13.4464 29.7543 13.0485C29.6751 13.0046 29.5933 12.9656 29.5093 12.9317C28.9092 12.6899 28.2558 12.7554 27.6491 13.0705C27.0216 13.3977 26.4437 13.9866 26.02 14.782C25.9131 14.9832 25.8189 15.1908 25.738 15.4037C25.3264 16.4779 25.2554 17.6175 25.4733 18.5913C25.686 19.5418 26.1725 20.3287 26.8832 20.7262C26.9622 20.7703 27.0439 20.8093 27.1279 20.8431C27.728 21.0852 28.3814 21.0197 28.988 20.7047C29.6159 20.3775 30.1938 19.7885 30.6172 18.9931C30.7241 18.7919 30.8183 18.5843 30.8992 18.3714C31.3108 17.2972 31.3818 16.1576 31.1639 15.1838V15.1838Z" fill="#374B3D"/>
<path fill-rule="evenodd" clip-rule="evenodd" d="M28.3717 23.383C29.2571 23.8525 29.8562 24.7615 30.1094 25.8511C30.3571 26.9181 30.273 28.164 29.7979 29.3357C29.7308 29.5013 29.6572 29.6617 29.5774 29.817C29.0801 30.7882 28.3645 31.5149 27.5763 31.9186C26.7687 32.3325 25.8843 32.4094 25.0738 32.0688C24.9976 32.0361 24.921 32.0004 24.8448 31.9599C23.9594 31.4907 23.36 30.5817 23.1071 29.4921C22.8594 28.4251 22.9435 27.1792 23.4186 26.0075C23.4855 25.8419 23.5589 25.6815 23.6388 25.5262C24.1361 24.555 24.852 23.828 25.6402 23.4246C26.4478 23.0107 27.3318 22.9338 28.1426 23.274C28.219 23.3061 28.2953 23.3424 28.3717 23.383ZM29.598 25.9718C29.3791 25.0295 28.8726 24.2498 28.1309 23.8565C28.07 23.824 28.0077 23.7944 27.944 23.7678C27.2821 23.4897 26.5518 23.5571 25.8778 23.9026C25.1838 24.2579 24.5503 24.9045 24.1057 25.7725C24.0343 25.9119 23.9676 26.058 23.9054 26.2107C23.4735 27.2767 23.396 28.4065 23.6201 29.3714C23.839 30.3137 24.3452 31.0934 25.0873 31.4867C25.1481 31.5194 25.2103 31.5486 25.2741 31.5754C25.936 31.8532 26.6663 31.7858 27.3404 31.4406C28.034 31.0853 28.6678 30.4387 29.1125 29.5707C29.1838 29.4313 29.2509 29.285 29.3124 29.1322C29.7436 28.0665 29.8212 26.9367 29.598 25.9718Z" fill="#374B3D"/>
<path fill-rule="evenodd" clip-rule="evenodd" d="M32.1095 51.4164L35.7372 40.9133H36.0336L32.4377 51.3225L72.7397 51.439C72.7986 48.9523 73.6558 12.8698 73.6922 12.0234C73.7098 11.598 73.7092 11.1504 73.6323 10.655C73.5943 10.4109 73.5312 10.121 73.471 9.88054C73.1372 8.54753 72.4828 7.59964 71.6861 7.03621C71.1563 6.65591 70.5259 6.44065 69.8741 6.41747C69.2406 6.39751 68.598 6.56406 68.0051 6.91678C67.0209 7.50344 66.1784 8.60578 65.7543 10.2248L62.4824 22.7116C60.4792 24.1668 58.4756 25.6219 56.4714 27.0771L56.295 27.0722L47.3952 26.9285L39.6478 30.4499L36.8915 38.4309L36.6029 38.4096L39.4224 30.247L47.3108 26.6616L47.3704 26.6488L56.1337 26.7888V26.7862L56.3844 26.7931L62.2363 22.5444L65.4818 10.1538C65.9261 8.45755 66.8174 7.29764 67.8612 6.67563C68.4995 6.2951 69.1952 6.1158 69.8819 6.13739C70.5888 6.16217 71.2726 6.3953 71.8474 6.80749C72.6932 7.40561 73.3853 8.40324 73.7393 9.79939C73.8047 10.0612 73.8662 10.3445 73.9078 10.6118C73.988 11.1301 73.9893 11.5951 73.9706 12.0338C73.9349 12.8845 73.0185 51.4714 73.0158 51.5823L73.0126 51.7197C59.4882 51.6726 45.5692 51.6513 32.0447 51.6009L32.1095 51.4164Z" fill="#231F20"/>
<path fill-rule="evenodd" clip-rule="evenodd" d="M36.1688 46.623L37.8993 47.6007L70.7909 47.6196C70.8564 47.6196 71.1728 47.6046 71.1538 47.2882C71.1374 47.0156 71.2032 45.2723 71.2608 43.1252C71.3108 41.2602 71.5153 38.7954 71.5386 38.0108C71.5443 37.8805 71.5317 37.7501 71.5009 37.6234C71.4818 37.5363 71.4399 37.4558 71.3795 37.3901C71.3219 37.3371 71.2461 37.3083 71.1679 37.3096C71.0953 37.3092 71.023 37.3191 70.9532 37.3391C70.6407 37.4225 70.1493 37.8924 69.6428 38.4921C68.993 39.2617 68.3369 40.2341 67.9845 40.9065C67.3364 42.143 66.4359 44.2305 66.4333 44.2364C66.4172 44.2732 66.3909 44.3046 66.3575 44.3269C66.3241 44.3491 66.285 44.3613 66.2448 44.362L59.5664 44.4579C59.0756 44.4651 58.731 44.2996 58.5004 44.0054C58.2815 43.7256 58.1791 43.3356 58.1637 42.8733C58.1274 41.7641 58.5684 40.8424 59.0252 39.8876C59.1273 39.6743 59.2304 39.459 59.3239 39.2509C59.8474 38.0861 61.5662 33.4683 61.5708 33.4549C61.5834 33.4206 61.6047 33.3902 61.6326 33.3665C61.8047 33.2075 65.2773 30.001 65.8699 29.7144C66.0599 29.6238 66.2696 29.5826 66.4798 29.5946C66.6813 29.6049 66.8769 29.666 67.0484 29.7723C67.2373 29.8909 67.3881 30.0613 67.4829 30.2631C67.5922 30.4895 67.6511 30.7758 67.6315 31.1282C67.5503 32.6065 67.4411 34.1057 67.391 35.582C67.391 35.9452 67.5346 36.348 67.7764 36.6663C68.0117 36.9759 68.3366 37.2013 68.7018 37.2226H68.8114C69.2512 37.2122 69.6705 37.0342 69.9834 36.7249C70.1401 36.5675 70.2642 36.3807 70.3484 36.1752C70.4327 35.9696 70.4754 35.7495 70.4742 35.5274V35.4619C70.4582 34.9168 70.5612 29.7818 70.6754 24.4563C70.7909 19.0824 70.9156 13.5933 70.9454 12.2937C70.9474 12.203 70.9431 12.1122 70.9326 12.0221C70.8946 11.7064 70.7788 11.406 70.59 11.1858C70.4986 11.0764 70.3846 10.9882 70.2558 10.9271C70.127 10.866 69.9865 10.8334 69.844 10.8318C69.7839 10.8304 69.7238 10.8332 69.664 10.8403C69.0924 10.909 68.7629 11.1697 68.5778 11.5447C68.3788 11.9475 68.3294 12.4903 68.3268 13.0776C68.3212 14.3073 67.838 25.2851 67.836 25.3149C67.8336 25.3691 67.8104 25.4203 67.7711 25.4577C67.7318 25.4952 67.6795 25.516 67.6253 25.5158L64.8045 25.5907L59.1931 29.6947L53.1072 45.6198C53.0916 45.6608 53.0636 45.6958 53.0271 45.7201C52.9906 45.7443 52.9474 45.7565 52.9036 45.7549L51.6691 45.7765C51.6416 45.7771 51.6142 45.7722 51.5885 45.7622C51.5629 45.7522 51.5394 45.7372 51.5196 45.7181C51.4997 45.699 51.4838 45.6762 51.4727 45.651C51.4617 45.6258 51.4557 45.5986 51.4551 45.571C51.4548 45.5516 51.4571 45.5322 51.462 45.5135L51.6256 44.8447L46.8979 44.7465L46.3767 45.6008C46.3577 45.6321 46.3308 45.6578 46.2988 45.6755C46.2668 45.6931 46.2307 45.7021 46.1941 45.7016C45.8849 45.7209 41.2645 46.0046 40.8006 45.7883C40.512 45.6535 40.1445 45.3168 39.9646 44.8499C39.8337 44.5063 39.798 44.0928 39.9646 43.637C40.03 43.4626 40.1851 42.9993 40.3919 42.3877C40.5392 41.9532 40.7122 41.4415 40.9001 40.8928L38.0083 40.9049C37.17 43.5074 36.3792 45.9676 36.1688 46.623Z" fill="#10E38C"/>
<path fill-rule="evenodd" clip-rule="evenodd" d="M48.2934 40.4235C48.4446 40.4458 48.633 40.4395 48.8343 40.4327C48.9462 40.4287 49.0633 40.4248 49.1667 40.4248H53.3823C53.561 40.0466 54.1136 38.7502 54.1719 37.0795C54.2137 35.8745 53.9824 33.6508 52.6186 31.9461C51.7352 30.8409 50.3685 29.9502 48.281 29.6996C46.3731 29.4706 44.8366 29.8468 43.6413 30.4521C41.508 31.5342 40.4652 33.3263 40.3366 33.7012C40.2365 33.9934 39.5513 36.1133 38.7615 38.565C39.7539 38.637 40.7224 38.7067 41.6385 38.7718C41.9533 37.8884 42.27 37.0301 42.5481 36.3394C42.6839 36.0077 42.8516 35.6899 43.0488 35.3905C43.2537 35.0773 43.4858 34.7826 43.7424 34.5101C44.493 33.7137 45.5688 33.2225 46.6525 33.0652C47.2771 32.9745 47.9073 32.9945 48.4812 33.1306C49.064 33.2687 49.5904 33.5272 49.9981 33.9113C50.4192 34.3082 50.7117 34.8356 50.8079 35.4992L50.8099 35.5165C50.8325 35.6768 50.9827 36.8796 50.4212 37.3904C50.3011 37.4997 50.1067 37.6682 49.8771 37.8671C49.1288 38.515 47.9908 39.5005 47.9688 39.6517C47.8851 40.222 48.0369 40.3859 48.2934 40.4235Z" fill="#10E38C"/>
<path fill-rule="evenodd" clip-rule="evenodd" d="M47.6082 40.4445C47.5218 40.258 47.4963 39.9903 47.5506 39.6075C43.8084 39.3503 26.1545 38.125 24.2718 37.7647C22.998 37.5206 21.6175 37.0383 20.3454 36.3666C19.1753 35.7482 18.0982 34.9688 17.2818 34.0664C16.597 33.3092 15.9174 32.3427 15.3186 31.3879C14.3603 29.8638 13.5986 28.3623 13.3417 27.8009C13.0989 27.2701 12.972 26.7757 12.9389 26.3285C12.9026 25.8308 12.9828 25.3904 13.1503 25.0197C13.3443 24.5914 14.1116 23.3837 14.8242 22.2591C15.2188 21.6374 15.5968 21.0419 15.8513 20.6202L16.0336 20.3178C17.3846 18.0798 18.8426 15.6641 19.6468 13.1954C20.1177 11.7505 20.4465 10.2395 20.5427 8.72848C20.6278 7.38893 20.5306 6.05068 20.1883 4.75989C20.011 4.09142 19.7819 3.53355 19.5015 3.06336C19.2398 2.62103 18.902 2.22845 18.5036 1.90377C17.9598 1.46075 17.1457 1.10639 16.2364 0.899275C15.353 0.698375 14.3832 0.637516 13.4834 0.768395C13.4386 0.774612 13.3934 0.780829 13.3486 0.789336C13.2216 0.810604 13.0943 0.837107 12.968 0.867209C12.8417 0.897312 12.7207 0.930031 12.6117 0.963406C11.4364 1.32332 10.6685 1.98819 10.1211 2.46034C10.0177 2.54966 9.9215 2.63277 9.8397 2.69985C9.46146 3.0097 8.26915 4.04136 7.18121 4.99776C6.3233 5.75359 5.52919 6.46361 5.24714 6.74042C5.0397 6.94459 4.63496 7.27637 4.15168 7.67228C3.06735 8.56095 1.58121 9.77878 1.20363 10.4512C0.677165 11.3896 0.456961 13.6698 0.438965 13.8632L0.783832 47.2652C0.73148 48.1611 0.870212 48.6696 1.08551 48.9618C1.28445 49.2317 1.5642 49.3191 1.80829 49.3649C1.84938 49.3726 1.8909 49.3779 1.93263 49.3806C2.21763 49.3977 2.50215 49.3398 2.75782 49.2127C3.00714 49.0848 3.21328 48.876 3.27119 48.5668C3.27843 48.5292 3.28345 48.4912 3.28624 48.453C3.31536 48.0348 3.30784 46.8674 3.30031 45.6718C3.29082 44.1994 3.28134 42.6812 3.34416 42.4077C3.40109 42.1606 3.56862 41.8841 3.7813 41.6306C4.00765 41.3595 4.27217 41.1228 4.56657 40.9277C5.03217 40.6313 5.6159 40.6208 5.71765 40.6215L47.6072 40.4458L47.6082 40.4445ZM17.6931 9.99899C17.5419 11.6265 17.057 13.3845 16.3091 14.8059C15.3687 16.592 12.0143 21.3757 9.53148 24.9176C8.16444 26.867 7.06244 28.4386 6.78138 28.9133C6.36682 29.6148 5.95847 30.1924 5.58154 30.6007C5.20461 31.009 4.83782 31.261 4.51357 31.3009L4.43373 31.3078C4.13074 31.3261 3.89123 31.2328 3.71389 31.0352C3.55029 30.8546 3.44919 30.5899 3.40731 30.2499C3.40076 30.1966 3.39553 30.1361 3.39127 30.0693V30.0513C3.39127 30.0049 3.84772 13.8724 3.90138 13.2824C3.9341 12.9241 4.10031 12.3299 4.41508 11.7701C4.64903 11.3549 4.96575 10.9544 5.37344 10.6737C5.75823 10.409 6.90211 9.44897 8.14874 8.40291C9.77622 7.03686 11.5781 5.52357 12.1363 5.18655L12.152 5.17805C12.6651 4.87277 13.5995 4.58909 14.5455 4.61788C15.5195 4.64668 16.5126 4.99841 17.1028 5.97379L17.1133 5.99244C17.6696 6.92856 17.843 8.40717 17.6947 10.0003L17.6931 9.99899ZM15.9652 36.8436C16.2675 38.1043 15.1799 38.192 15.069 38.1976H15.0565C15.033 38.1976 6.77843 38.3065 6.39463 38.3285C6.0638 38.3423 5.73293 38.3022 5.415 38.2097C5.14604 38.1263 4.90915 37.9921 4.79332 37.7873C4.66768 37.5645 4.64641 37.3102 4.68698 37.0599C4.73475 36.7635 4.87021 36.471 5.01418 36.2501L9.55406 29.2438C9.66755 29.0613 9.79909 28.8906 9.94669 28.7344C10.125 28.5537 10.3367 28.4144 10.5811 28.3996C10.7863 28.3875 10.9905 28.4752 11.1701 28.6077C11.3711 28.7604 11.542 28.949 11.6743 29.164C11.958 29.6292 12.9599 31.279 13.9352 32.9595C14.9106 34.64 15.8422 36.3293 15.9652 36.8436V36.8436Z" fill="#10E38C"/>
<path fill-rule="evenodd" clip-rule="evenodd" d="M23.1067 29.4922C22.859 28.4252 22.9431 27.1792 23.4182 26.0075C23.4851 25.842 23.5585 25.6815 23.6384 25.5262C24.1357 24.5551 24.8516 23.8281 25.6398 23.4246C26.4474 23.0107 27.3314 22.9338 28.1422 23.2741C28.2186 23.3062 28.2949 23.3425 28.3713 23.3831C29.2567 23.8526 29.8558 24.7616 30.109 25.8511C30.3567 26.9181 30.2726 28.1641 29.7975 29.3358C29.7304 29.5014 29.6568 29.6618 29.577 29.8171C29.0797 30.7882 28.3641 31.5149 27.5759 31.9187C26.7683 32.3326 25.8839 32.4095 25.0734 32.0689C24.9972 32.0362 24.9206 32.0005 24.8444 31.9599C23.959 31.4907 23.3596 30.5818 23.1067 29.4922V29.4922ZM31.1868 35.2787C32.7057 34.607 33.9781 33.4039 34.9058 31.4711C34.9269 31.4215 34.9664 31.382 35.0159 31.3608C35.0655 31.3396 35.1213 31.3382 35.1718 31.357C35.2223 31.3758 35.2636 31.4134 35.2872 31.4618C35.3108 31.5103 35.3148 31.566 35.2984 31.6173C35.2932 31.637 34.4509 34.693 33.487 38.1737C34.2494 38.232 35.0271 38.2909 35.8072 38.3488C39.3341 28.1827 44.1969 14.0897 44.2185 14.0268C44.2328 13.985 44.2601 13.9488 44.2963 13.9234L47.9505 11.1095C47.9863 11.0818 48.0302 11.0666 48.0755 11.066C48.0912 11.066 53.5318 11.0196 54.1895 10.8776C54.5075 10.8092 54.8001 10.657 54.9875 10.4339C55.07 10.3366 55.1306 10.2227 55.1653 10.1C55.2001 9.97734 55.2082 9.84863 55.1891 9.72255C55.1489 9.41302 55.0186 9.18398 54.785 9.03969C54.5291 8.88165 54.147 8.81065 53.6222 8.83519C52.7741 8.87282 40.9318 9.50954 34.9064 9.8338H34.8891L31.4361 10.02H31.4289C31.4257 10.02 30.2867 10.0425 30.1597 10.7938C30.1406 10.903 30.1355 11.0141 30.1447 11.1246C30.1587 11.3387 30.246 11.5414 30.3917 11.6988C30.518 11.8328 30.6842 11.9223 30.8655 11.954C30.9272 11.9647 30.99 11.9675 31.0523 11.9622L31.2765 11.9416C32.2826 11.8487 35.4882 11.5522 36.5836 11.6334C37.8028 11.7234 39.8307 12.6166 39.8366 12.6192C39.8827 12.6391 39.9202 12.6749 39.9422 12.72C39.9641 12.7652 39.9692 12.8167 39.9564 12.8653C39.9125 13.0894 39.3295 16.0594 39.1207 16.8175C38.9071 17.5923 36.9789 25.2298 36.9733 25.2517C36.96 25.3037 36.9273 25.3486 36.8819 25.3772C36.8365 25.4059 36.7819 25.4161 36.7292 25.4059C36.6766 25.3956 36.6298 25.3655 36.5986 25.3219C36.5673 25.2783 36.5539 25.2244 36.5611 25.1712C36.5764 24.9726 36.7312 22.4843 34.9735 21.4785C34.9495 21.4648 34.9285 21.4465 34.9116 21.4247C34.8947 21.4029 34.8823 21.378 34.875 21.3513C34.8678 21.3247 34.8658 21.2969 34.8693 21.2696C34.8728 21.2422 34.8816 21.2158 34.8953 21.1918C34.9101 21.166 34.9303 21.1437 34.9545 21.1264C35.1999 20.9163 39.0167 17.5324 36.4315 12.0457C35.2676 11.9946 32.2761 12.2711 31.3148 12.3601L31.0896 12.3807C30.9914 12.3895 30.8924 12.3855 30.7952 12.3689C30.5246 12.3206 30.2768 12.1862 30.0887 11.9858C29.8774 11.761 29.7493 11.4706 29.7259 11.1629C29.7135 11.0172 29.7197 10.8705 29.7445 10.7264C29.9291 9.63224 31.4132 9.60247 31.4191 9.60247L34.2173 9.45163C33.4975 9.05474 32.065 8.44288 29.9942 8.36239C27.8641 8.27961 26.1031 8.56132 24.669 9.20983C23.2457 9.85343 22.1411 10.8619 21.3133 12.2371C20.5391 13.5236 19.7997 15.4086 19.71 17.1902C19.6446 18.5075 19.9371 19.7656 20.8421 20.668C20.8691 20.6927 20.8892 20.724 20.9003 20.7588C20.9114 20.7937 20.9133 20.8308 20.9056 20.8666L20.8506 21.1244C20.8441 21.1553 20.8307 21.1843 20.8114 21.2092C20.7921 21.2342 20.7673 21.2544 20.7391 21.2684C20.7279 21.2743 16.8529 23.1603 16.6939 27.2702C16.5993 29.7098 17.5305 31.6389 19.0366 33.0534C20.7914 34.7009 23.3259 35.656 25.9333 35.9115C27.8726 36.1 29.6578 35.956 31.1855 35.28L31.1868 35.2787ZM26.6329 21.1974C25.7822 20.7213 25.206 19.8052 24.9609 18.7084C24.7207 17.6355 24.7973 16.3837 25.2478 15.2074C25.3374 14.9735 25.4414 14.7455 25.5593 14.5245C26.0354 13.6313 26.6921 12.9638 27.4103 12.5908C28.1498 12.2066 28.9537 12.1301 29.7007 12.4308C29.8052 12.4733 29.907 12.5224 30.0053 12.5777C30.856 13.0538 31.4322 13.9699 31.6773 15.0664C31.9175 16.1396 31.8409 17.3914 31.3903 18.5674C31.3008 18.8012 31.1967 19.0293 31.0788 19.2502C30.6028 20.1435 29.9461 20.8106 29.2279 21.184C28.4884 21.5681 27.6845 21.6447 26.9375 21.344C26.833 21.3014 26.7313 21.2525 26.6329 21.1974V21.1974Z" fill="#10E38C"/>
<path fill-rule="evenodd" clip-rule="evenodd" d="M32.7226 40.9264C31.7496 44.4327 30.8393 47.6903 30.694 48.1346C30.6328 48.3193 30.5925 48.5103 30.5736 48.7039C30.5484 48.985 30.5808 49.2274 30.6623 49.413C30.7343 49.5749 30.8452 49.6888 30.9895 49.7353C31.0261 49.7469 31.064 49.7545 31.1024 49.7578C31.3445 49.7798 31.5487 49.6463 31.724 49.4418C31.924 49.2078 32.0882 48.8819 32.2292 48.5711C32.3136 48.3777 33.4137 45.2366 34.9142 40.9176L32.7226 40.9264Z" fill="#10E38C"/>
</svg>
